<?xml version="1.0" encoding="UTF-8"?>
<!DOCTYPE svg PUBLIC "-//W3C//DTD SVG 1.1//EN" "http://www.w3.org/Graphics/SVG/1.1/DTD/svg11.dtd">
<!-- Creator: CorelDRAW X6 -->
<svg xmlns="http://www.w3.org/2000/svg" xml:space="preserve" width="960.366mm" height="167.992mm" version="1.1" style="shape-rendering:geometricPrecision; text-rendering:geometricPrecision; image-rendering:optimizeQuality; fill-rule:evenodd; clip-rule:evenodd"
viewBox="0 0 439192 76825"
 xmlns:xlink="http://www.w3.org/1999/xlink">
 <defs>
  <style type="text/css">
   <![CDATA[
    .fil0 {fill:#34495E}
    .fil1 {fill:#41B883}
    .fil2 {fill:#434242;fill-rule:nonzero}
   ]]>
  </style>
   <mask id="id0">
  <linearGradient id="id1" gradientUnits="userSpaceOnUse" x1="19282.4" y1="43212.7" x2="76829.3" y2="43212.7">
   <stop offset="0" style="stop-opacity:1; stop-color:white"/>
   <stop offset="1" style="stop-opacity:0.498039; stop-color:white"/>
  </linearGradient>
    <rect style="fill:url(#id1)" x="19265" y="38393" width="57582" height="9639"/>
   </mask>
   <mask id="id2">
  <linearGradient id="id3" gradientUnits="userSpaceOnUse" x1="19207.3" y1="72023.7" x2="76829.3" y2="72023.7">
   <stop offset="0" style="stop-opacity:1; stop-color:white"/>
   <stop offset="1" style="stop-opacity:0.498039; stop-color:white"/>
  </linearGradient>
    <rect style="fill:url(#id3)" x="19190" y="67204" width="57657" height="9639"/>
   </mask>
   <mask id="id4">
  <linearGradient id="id5" gradientUnits="userSpaceOnUse" x1="19252.3" y1="57618.2" x2="76829.3" y2="57618.2">
   <stop offset="0" style="stop-opacity:1; stop-color:white"/>
   <stop offset="1" style="stop-opacity:0.498039; stop-color:white"/>
  </linearGradient>
    <rect style="fill:url(#id5)" x="19235" y="52799" width="57612" height="9639"/>
   </mask>
 </defs>
 <g id="Réteg_x0020_1">
  <metadata id="CorelCorpID_0Corel-Layer"/>
  <path class="fil0" d="M91610 17553l-40831 -17001c-876,-364 -1819,-551 -2768,-551 -950,0 -1892,188 -2769,551l-40815 17002c-2671,1125 -4427,3736 -4427,6648l0 51425c0,660 540,1200 1200,1200l12005 0c660,0 1200,-540 1200,-1200l0 -37214c0,-2641 2191,-4802 4892,-4802l57442 0c2701,0 4892,2161 4892,4802l0 37214c0,660 540,1200 1200,1200l12005 0c660,0 1200,-540 1200,-1200l0 -51425c0,-2911 -1756,-5522 -4427,-6648l0 0z"/>
  <path class="fil1" style="mask:url(#id0)" d="M75629 38411l-55131 0c-660,0 -1200,540 -1200,1200l-15 7203c0,660 540,1200 1200,1200l55146 0c660,0 1200,-540 1200,-1200l0 -7203c0,-660 -540,-1200 -1200,-1200z"/>
  <path class="fil1" style="mask:url(#id2)" d="M75629 67222l-55206 0c-660,0 -1200,540 -1200,1200l-15 7203c0,660 540,1200 1200,1200l55221 0c660,0 1200,-540 1200,-1200l0 -7203c0,-660 -540,-1200 -1200,-1200z"/>
  <path class="fil1" style="mask:url(#id4)" d="M75629 52816l-55161 0c-660,0 -1200,540 -1200,1200l-15 7203c0,660 540,1200 1200,1200l55176 0c660,0 1200,-540 1200,-1200l0 -7203c0,-660 -540,-1200 -1200,-1200z"/>
  <polygon class="fil2" points="171037,20128 158592,58507 146969,58507 139622,35151 131946,58507 120323,58507 107878,20128 119062,20128 126793,44635 134907,20128 144885,20128 152616,44855 160675,20128 "/>
  <path id="1" class="fil2" d="M184908 28297c4934,0 8699,1124 11294,3372 2595,2248 3893,5693 3893,10335l0 16503 -9704 0 0 -3838c-1499,2888 -4423,4331 -8772,4331 -2303,0 -4295,-402 -5976,-1206 -1681,-804 -2951,-1892 -3810,-3262 -859,-1371 -1288,-2933 -1288,-4688 0,-2814 1078,-4998 3235,-6552 2156,-1553 5483,-2330 9978,-2330l5921 0c-183,-3143 -2284,-4715 -6305,-4715 -1425,0 -2869,228 -4331,685 -1462,457 -2705,1087 -3728,1892l-3509 -7073c1645,-1097 3646,-1946 6003,-2549 2358,-603 4724,-905 7100,-905zm-384 24123c1206,0 2266,-292 3180,-877 914,-585 1572,-1444 1974,-2577l0 -2577 -4496 0c-3034,0 -4551,1005 -4551,3015 0,914 347,1645 1042,2193 694,548 1645,822 2851,822z"/>
  <path id="2" class="fil2" d="M216598 32354c1060,-1352 2440,-2367 4139,-3043 1700,-676 3646,-1014 5839,-1014l0 9375c-950,-110 -1736,-164 -2358,-164 -2230,0 -3975,603 -5236,1809 -1261,1206 -1892,3052 -1892,5537l0 13652 -10417 0 0 -29716 9924 0 0 3564z"/>
  <path id="3" class="fil2" d="M260952 43703c0,73 -55,932 -164,2577l-21602 0c439,1535 1288,2714 2549,3536 1261,822 2842,1234 4742,1234 1426,0 2659,-201 3701,-603 1042,-402 2093,-1060 3152,-1974l5483 5702c-2888,3216 -7109,4825 -12665,4825 -3472,0 -6524,-658 -9156,-1974 -2632,-1316 -4669,-3143 -6113,-5483 -1444,-2339 -2166,-4989 -2166,-7950 0,-2924 704,-5547 2111,-7868 1407,-2321 3354,-4139 5839,-5455 2485,-1316 5282,-1974 8388,-1974 2961,0 5647,612 8059,1837 2412,1224 4322,2997 5729,5318 1407,2321 2111,5071 2111,8251zm-15845 -8005c-1608,0 -2951,457 -4030,1371 -1078,914 -1764,2157 -2056,3728l12171 0c-292,-1572 -978,-2814 -2056,-3728 -1078,-914 -2421,-1371 -4030,-1371z"/>
  <path id="4" class="fil2" d="M285131 28297c3692,0 6661,1097 8909,3290 2248,2193 3372,5501 3372,9924l0 16996 -10417 0 0 -15296c0,-4057 -1626,-6086 -4880,-6086 -1791,0 -3226,585 -4304,1754 -1078,1170 -1617,2924 -1617,5263l0 14364 -10417 0 0 -40681 10417 0 0 13707c1133,-1060 2467,-1864 4002,-2412 1535,-548 3180,-822 4934,-822z"/>
  <path id="5" class="fil2" d="M319287 59000c-3180,0 -6049,-658 -8608,-1974 -2559,-1316 -4560,-3143 -6003,-5483 -1444,-2339 -2166,-4989 -2166,-7950 0,-2924 722,-5556 2166,-7895 1444,-2339 3436,-4158 5976,-5455 2540,-1298 5419,-1946 8635,-1946 3216,0 6104,649 8663,1946 2559,1298 4551,3107 5976,5428 1426,2321 2138,4962 2138,7922 0,2961 -713,5611 -2138,7950 -1425,2339 -3417,4167 -5976,5483 -2559,1316 -5446,1974 -8663,1974zm0 -8279c1828,0 3326,-631 4496,-1891 1170,-1261 1754,-3006 1754,-5236 0,-2193 -585,-3911 -1754,-5154 -1170,-1243 -2668,-1864 -4496,-1864 -1828,0 -3326,621 -4496,1864 -1170,1243 -1754,2961 -1754,5154 0,2230 585,3975 1754,5236 1170,1261 2668,1891 4496,1891z"/>
  <path id="6" class="fil2" d="M372140 28791l0 29716 -9924 0 0 -3180c-1097,1206 -2412,2120 -3947,2741 -1535,621 -3162,932 -4880,932 -3838,0 -6899,-1133 -9183,-3399 -2284,-2266 -3427,-5665 -3427,-10198l0 -16612 10417 0 0 14913c0,2230 420,3856 1261,4880 841,1023 2065,1535 3673,1535 1645,0 2988,-576 4030,-1727 1042,-1151 1563,-2915 1563,-5291l0 -14310 10417 0z"/>
  <path id="7" class="fil2" d="M389629 59000c-2485,0 -4934,-283 -7347,-850 -2412,-567 -4350,-1307 -5812,-2220l3125 -7127c1352,841 2961,1508 4825,2001 1864,493 3710,740 5537,740 1681,0 2878,-174 3591,-521 713,-347 1069,-850 1069,-1508 0,-658 -430,-1124 -1288,-1398 -859,-274 -2220,-539 -4085,-795 -2376,-292 -4395,-676 -6058,-1151 -1663,-475 -3098,-1352 -4304,-2632 -1206,-1279 -1809,-3070 -1809,-5373 0,-1901 567,-3591 1700,-5071 1133,-1480 2787,-2650 4962,-3509 2175,-859 4779,-1288 7813,-1288 2156,0 4295,219 6415,658 2120,439 3893,1060 5318,1864l-3125 7073c-2632,-1462 -5483,-2193 -8553,-2193 -1645,0 -2851,192 -3619,576 -768,384 -1151,886 -1151,1508 0,694 420,1179 1261,1453 841,274 2230,557 4167,850 2449,365 4478,786 6086,1261 1608,475 3006,1343 4194,2604 1188,1261 1782,3025 1782,5291 0,1864 -567,3536 -1700,5017 -1133,1480 -2805,2641 -5017,3481 -2211,841 -4870,1261 -7977,1261z"/>
  <path id="8" class="fil2" d="M439192 43703c0,73 -55,932 -164,2577l-21602 0c439,1535 1288,2714 2549,3536 1261,822 2842,1234 4742,1234 1426,0 2659,-201 3701,-603 1042,-402 2093,-1060 3152,-1974l5483 5702c-2888,3216 -7109,4825 -12665,4825 -3472,0 -6524,-658 -9156,-1974 -2632,-1316 -4669,-3143 -6113,-5483 -1444,-2339 -2166,-4989 -2166,-7950 0,-2924 704,-5547 2111,-7868 1407,-2321 3354,-4139 5839,-5455 2485,-1316 5282,-1974 8388,-1974 2961,0 5647,612 8059,1837 2412,1224 4322,2997 5729,5318 1407,2321 2111,5071 2111,8251zm-15845 -8005c-1608,0 -2951,457 -4030,1371 -1078,914 -1764,2157 -2056,3728l12171 0c-292,-1572 -978,-2814 -2056,-3728 -1078,-914 -2421,-1371 -4030,-1371z"/>
 </g>
</svg>
