<?xml version="1.0" encoding="UTF-8"?>
<!DOCTYPE svg PUBLIC "-//W3C//DTD SVG 1.1//EN" "http://www.w3.org/Graphics/SVG/1.1/DTD/svg11.dtd">
<!-- Creator: CorelDRAW X6 -->
<svg xmlns="http://www.w3.org/2000/svg" xml:space="preserve" width="210mm" height="167.992mm" version="1.1" style="shape-rendering:geometricPrecision; text-rendering:geometricPrecision; image-rendering:optimizeQuality; fill-rule:evenodd; clip-rule:evenodd"
viewBox="0 0 21000 16799"
 xmlns:xlink="http://www.w3.org/1999/xlink">
 <defs>
  <style type="text/css">
   <![CDATA[
    .fil0 {fill:#34495E}
    .fil1 {fill:#41B883}
   ]]>
  </style>
   <mask id="id0">
  <linearGradient id="id1" gradientUnits="userSpaceOnUse" x1="4216.41" y1="9449.17" x2="16800" y2="9449.17">
   <stop offset="0" style="stop-opacity:1; stop-color:white"/>
   <stop offset="1" style="stop-opacity:0.498039; stop-color:white"/>
  </linearGradient>
    <rect style="fill:url(#id1)" x="4213" y="8395" width="12591" height="2108"/>
   </mask>
   <mask id="id2">
  <linearGradient id="id3" gradientUnits="userSpaceOnUse" x1="4200" y1="15749.2" x2="16800" y2="15749.2">
   <stop offset="0" style="stop-opacity:1; stop-color:white"/>
   <stop offset="1" style="stop-opacity:0.498039; stop-color:white"/>
  </linearGradient>
    <rect style="fill:url(#id3)" x="4196" y="14695" width="12608" height="2108"/>
   </mask>
   <mask id="id4">
  <linearGradient id="id5" gradientUnits="userSpaceOnUse" x1="4209.84" y1="12599.2" x2="16800" y2="12599.2">
   <stop offset="0" style="stop-opacity:1; stop-color:white"/>
   <stop offset="1" style="stop-opacity:0.498039; stop-color:white"/>
  </linearGradient>
    <rect style="fill:url(#id5)" x="4206" y="11545" width="12598" height="2108"/>
   </mask>
 </defs>
 <g id="Réteg_x0020_1">
  <metadata id="CorelCorpID_0Corel-Layer"/>
  <path class="fil0" d="M20032 3838l-8928 -3718c-192,-80 -398,-121 -605,-121 -208,0 -414,41 -605,121l-8925 3718c-584,246 -968,817 -968,1454l0 11245c0,144 118,263 263,263l2625 0c144,0 263,-118 263,-263l0 -8137c0,-578 479,-1050 1070,-1050l12561 0c591,0 1070,473 1070,1050l0 8137c0,144 118,263 263,263l2625 0c144,0 263,-118 263,-263l0 -11245c0,-637 -384,-1208 -968,-1454l0 0z"/>
  <path class="fil1" style="mask:url(#id0)" d="M16538 8399l-12055 0c-144,0 -263,118 -263,263l-3 1575c0,144 118,263 263,263l12059 0c144,0 263,-118 263,-263l0 -1575c0,-144 -118,-263 -263,-263z"/>
  <path class="fil1" style="mask:url(#id2)" d="M16538 14699l-12072 0c-144,0 -263,118 -263,263l-3 1575c0,144 118,263 263,263l12075 0c144,0 263,-118 263,-263l0 -1575c0,-144 -118,-263 -263,-263z"/>
  <path class="fil1" style="mask:url(#id4)" d="M16538 11549l-12062 0c-144,0 -263,118 -263,263l-3 1575c0,144 118,263 263,263l12065 0c144,0 263,-118 263,-263l0 -1575c0,-144 -118,-263 -263,-263z"/>
 </g>
</svg>
